<svg width="219" height="80" viewBox="0 0 219 80" fill="none" xmlns="http://www.w3.org/2000/svg">
<path d="M164.656 25.7794H162.72V34.1488H164.656V25.7794Z" fill="#FF00C5"/>
<path d="M166.718 31.9278C166.718 32.6771 166.925 33.2451 167.337 33.6588C167.75 34.0463 168.344 34.2531 169.118 34.2531C169.4 34.2531 169.684 34.2275 169.968 34.15C170.227 34.0725 170.458 33.9693 170.639 33.84L170.149 32.5227C169.943 32.6777 169.684 32.7552 169.401 32.7552C169.144 32.7552 168.963 32.6777 168.809 32.5227C168.679 32.3677 168.601 32.1609 168.601 31.9028V29.2938H170.2V27.8734H168.601V26.2974H166.746V27.8734H165.764V29.2938H166.746V31.9284H166.718L166.718 31.9278Z" fill="#FF00C5"/>
<path d="M171.877 27.356L171.362 29.2413H172.549L173.245 27.5104C173.374 27.2004 173.45 26.9423 173.503 26.7873C173.554 26.6324 173.554 26.4774 173.554 26.2962C173.554 25.9606 173.451 25.6763 173.219 25.4694C173.014 25.2626 172.729 25.1595 172.394 25.1595C172.059 25.1595 171.775 25.2626 171.567 25.4694C171.361 25.6763 171.232 25.9606 171.232 26.2962C171.232 26.5543 171.285 26.7611 171.412 26.9417C171.516 27.1229 171.671 27.2517 171.877 27.3292V27.356Z" fill="#FF00C5"/>
<path d="M176.83 32.8058C176.444 32.8058 176.031 32.754 175.645 32.6246C175.259 32.4953 174.896 32.3665 174.612 32.1853L173.995 33.5288C174.303 33.7357 174.691 33.8907 175.206 34.0194C175.721 34.1488 176.239 34.2006 176.779 34.2006C177.398 34.2006 177.941 34.1231 178.404 33.9425C178.869 33.7619 179.203 33.5294 179.436 33.2195C179.667 32.9095 179.797 32.5477 179.797 32.1603C179.797 31.6953 179.667 31.3335 179.436 31.0492C179.203 30.7649 178.895 30.6099 178.558 30.5068C178.223 30.4037 177.786 30.3262 177.269 30.2225C176.804 30.145 176.47 30.0675 176.239 29.99C176.031 29.9125 175.903 29.7832 175.903 29.5769C175.903 29.3957 176.005 29.267 176.213 29.1376C176.419 29.0345 176.703 28.9826 177.114 28.9826C177.786 28.9826 178.403 29.1376 178.972 29.4732L179.59 28.1559C179.306 27.9747 178.92 27.8459 178.481 27.7428C178.042 27.6397 177.578 27.5878 177.114 27.5878C176.495 27.5878 175.979 27.6653 175.515 27.8459C175.05 28.0266 174.715 28.259 174.484 28.569C174.251 28.8789 174.122 29.2407 174.122 29.6538C174.122 30.1444 174.251 30.5062 174.51 30.7643C174.767 31.0224 175.051 31.2036 175.386 31.3067C175.722 31.4099 176.16 31.5136 176.677 31.591C177.114 31.6429 177.449 31.7204 177.657 31.7979C177.863 31.8754 177.992 32.0047 177.992 32.1853C177.992 32.5728 177.604 32.7796 176.805 32.7796L176.831 32.8052L176.83 32.8058Z" fill="#FF00C5"/>
<path d="M184.541 34.1232H186.398V29.267H187.997V27.8466H186.347V27.5622C186.347 26.9423 186.631 26.6324 187.197 26.6324C187.482 26.6324 187.74 26.7099 187.946 26.8648L188.435 25.5213C188.28 25.4182 188.049 25.3145 187.816 25.2632C187.585 25.2114 187.301 25.1857 187.017 25.1857C186.218 25.1857 185.624 25.3926 185.185 25.8313C184.748 26.2706 184.541 26.8386 184.541 27.5879V27.8722H183.561V29.2932H184.541V34.1494V34.1232Z" fill="#FF00C5"/>
<path d="M190.141 29.267C190.476 29.1638 190.811 29.112 191.146 29.112C191.636 29.112 191.997 29.2151 192.255 29.4476C192.514 29.6544 192.616 29.99 192.616 30.3775H191.146C190.218 30.3775 189.522 30.5581 189.057 30.8942C188.618 31.2298 188.385 31.6953 188.385 32.3153C188.385 32.7027 188.489 33.0127 188.669 33.3226C188.85 33.6069 189.134 33.8394 189.494 34.02C189.857 34.2006 190.296 34.2781 190.785 34.2781C191.74 34.2781 192.384 33.9682 192.745 33.3739V34.175H194.473V30.5068C194.473 29.5513 194.215 28.8277 193.674 28.3627C193.131 27.8978 192.385 27.6653 191.377 27.6653C190.862 27.6653 190.347 27.7428 189.857 27.8722C189.367 28.0015 188.954 28.2078 188.593 28.4402L189.263 29.7319C189.494 29.5513 189.778 29.3963 190.113 29.2926L190.141 29.267ZM192.616 32.1084C192.514 32.3927 192.332 32.599 192.101 32.754C191.842 32.9089 191.585 32.9864 191.25 32.9864C190.914 32.9864 190.656 32.9089 190.476 32.7796C190.296 32.6503 190.192 32.444 190.192 32.2115C190.192 31.721 190.578 31.4623 191.327 31.4623H192.591V32.1078H192.616L192.616 32.1084Z" fill="#FF00C5"/>
<path d="M200.12 30.533C199.785 30.4299 199.346 30.3524 198.831 30.2487C198.367 30.1712 198.032 30.0937 197.801 30.0162C197.593 29.9387 197.464 29.8094 197.464 29.6031C197.464 29.4225 197.568 29.2932 197.774 29.1638C197.981 29.0607 198.264 29.0089 198.677 29.0089C199.347 29.0089 199.967 29.1638 200.534 29.5L201.153 28.1827C200.869 28.0021 200.483 27.8727 200.044 27.7696C199.605 27.6665 199.141 27.6146 198.676 27.6146C198.057 27.6146 197.542 27.6921 197.078 27.8727C196.639 28.0534 196.278 28.2858 196.045 28.5958C195.814 28.9057 195.685 29.2675 195.685 29.6806C195.685 30.1718 195.814 30.533 196.073 30.7917C196.329 31.0498 196.613 31.231 196.949 31.3341C197.284 31.4372 197.723 31.5409 198.238 31.6184C198.677 31.6703 199.012 31.7478 199.218 31.8253C199.425 31.9027 199.554 32.0321 199.554 32.2127C199.554 32.6001 199.167 32.807 198.367 32.807C197.981 32.807 197.568 32.7551 197.182 32.6264C196.768 32.5232 196.434 32.3683 196.149 32.1871L195.53 33.53C195.84 33.7368 196.228 33.8918 196.743 34.0212C197.259 34.1505 197.774 34.2018 198.317 34.2018C198.935 34.2018 199.476 34.1243 199.941 33.9437C200.406 33.7625 200.74 33.5306 200.973 33.2201C201.204 32.9101 201.334 32.5483 201.334 32.1609C201.334 31.6959 201.204 31.3341 200.973 31.0504C200.74 30.766 200.431 30.6111 200.095 30.5079L200.121 30.5336L200.12 30.533Z" fill="#FF00C5"/>
<path d="M206.13 32.5221C205.924 32.6771 205.666 32.7545 205.382 32.7545C205.125 32.7545 204.945 32.6771 204.79 32.5221C204.661 32.3671 204.583 32.1603 204.583 31.9022V29.2932H206.181V27.8727H204.583V26.2967H202.725V27.8727H201.745V29.2932H202.725V31.9278C202.725 32.6771 202.933 33.2451 203.344 33.6588C203.758 34.0462 204.351 34.253 205.125 34.253C205.408 34.253 205.692 34.2274 205.976 34.1499C206.234 34.0724 206.466 33.9693 206.646 33.84L206.156 32.5227H206.131L206.13 32.5221Z" fill="#FF00C5"/>
<path d="M212.141 28.0015C211.626 27.7172 211.083 27.5884 210.439 27.5884C209.794 27.5884 209.2 27.7178 208.685 28.0015C208.17 28.2858 207.756 28.6733 207.447 29.1895C207.162 29.7062 207.008 30.2487 207.008 30.8942C207.008 31.5398 207.162 32.1084 207.472 32.599C207.782 33.0901 208.195 33.5032 208.761 33.7869C209.33 34.0713 209.948 34.2006 210.67 34.2006C211.831 34.2006 212.708 33.865 213.327 33.167L212.347 32.0822C212.116 32.289 211.882 32.444 211.624 32.5471C211.367 32.6502 211.083 32.7021 210.747 32.7021C210.258 32.7021 209.844 32.599 209.535 32.3665C209.199 32.134 208.994 31.8241 208.916 31.4104H213.765C213.765 31.1005 213.791 30.9199 213.791 30.8936C213.791 30.2219 213.636 29.6282 213.352 29.137C213.069 28.6202 212.656 28.2328 212.141 27.9747V28.0003L212.141 28.0015ZM208.866 30.3518C208.917 29.9387 209.097 29.6025 209.381 29.3701C209.665 29.1376 210.025 29.0083 210.439 29.0083C210.852 29.0083 211.213 29.1376 211.497 29.3701C211.779 29.6025 211.961 29.9381 212.012 30.3518H208.839H208.866Z" fill="#FF00C5"/>
<path d="M217.685 27.8465C217.297 28.0015 217.013 28.234 216.782 28.5439V27.6915H215.002V34.1237H216.858V31.1016C216.858 30.5074 217.013 30.0686 217.323 29.7587C217.632 29.4487 218.046 29.3194 218.587 29.3194H219V27.5884C218.51 27.5884 218.071 27.6659 217.685 27.8209V27.8465H217.685Z" fill="#FF00C5"/>
<path d="M100.842 38.3071H120.523L121.838 34.3551H102.159L100.842 38.3071Z" fill="white"/>
<path d="M102.158 46.187H117.892L119.207 42.2351H99.526L98.2113 46.187L96.8966 50.1133L95.5802 54.0653H115.286L116.576 50.1133H100.843L102.158 46.187Z" fill="white"/>
<path d="M138.884 42.2351H123.152L121.837 46.1871H137.57L136.281 50.1134H120.52L119.206 54.0653L116.574 61.9441H120.52L123.152 54.0653H138.885L142.831 42.2345H138.885L138.884 42.2351Z" fill="white"/>
<path d="M170.38 42.2351L167.776 50.1139H155.962L158.568 42.2351H154.647L150.701 54.0659H170.38L174.326 42.2351H170.38Z" fill="white"/>
<path d="M178.271 42.2351L176.956 46.187L174.325 54.0659H190.059L188.743 58.0178H173.01L171.695 61.9697H191.374L197.952 42.2351H178.271ZM191.374 50.1133H179.56L180.877 46.1608H192.689L191.374 50.1133Z" fill="white"/>
<path d="M153.329 34.3551H149.383L146.339 43.5513L142.832 54.0647H146.778L150.699 42.2339L153.329 34.3551Z" fill="white"/>
<path d="M71.1295 14.1042C69.5814 14.1042 68.3179 14.9053 68.3179 15.8864C68.3179 16.8675 69.5819 17.6687 71.1295 17.6687C72.6771 17.6687 73.9412 16.8681 73.9412 15.8864C73.9412 14.9047 72.6771 14.1042 71.1295 14.1042Z" fill="#FF00C5"/>
<path d="M71.1295 12.425C72.6824 12.425 73.9412 11.6268 73.9412 10.6428C73.9412 9.65875 72.6824 8.86055 71.1295 8.86055C69.5767 8.86055 68.3179 9.65875 68.3179 10.6428C68.3179 11.6268 69.5767 12.425 71.1295 12.425Z" fill="#FF00C5"/>
<path d="M57.9499 14.1042C56.4018 14.1042 55.1383 14.9053 55.1383 15.8864C55.1383 16.8675 56.4023 17.6687 57.9499 17.6687C59.4975 17.6687 60.7598 16.8681 60.7598 15.8864C60.7598 14.9047 59.4958 14.1042 57.9499 14.1042Z" fill="#FF00C5"/>
<path d="M57.9499 8.85998C56.4018 8.85998 55.1383 9.66109 55.1383 10.6422C55.1383 11.6234 56.4023 12.4245 57.9499 12.4245C59.4975 12.4245 60.7598 11.6234 60.7598 10.6422C60.7598 9.66109 59.4958 8.85998 57.9499 8.85998Z" fill="#FF00C5"/>
<path d="M78.2992 11.3921C76.7528 11.3921 75.4893 12.1926 75.4893 13.1743C75.4893 14.156 76.7534 14.9565 78.2992 14.9565C79.8451 14.9565 81.1109 14.1554 81.1109 13.1743C81.1109 12.1932 79.8468 11.3921 78.2992 11.3921Z" fill="#FF00C5"/>
<path d="M51.2682 11.3921C49.72 11.3921 48.4565 12.1926 48.4565 13.1743C48.4565 14.156 49.7206 14.9565 51.2682 14.9565C52.8157 14.9565 54.0798 14.1554 54.0798 13.1743C54.0798 12.1932 52.8157 11.3921 51.2682 11.3921Z" fill="#FF00C5"/>
<path d="M64.7849 11.3921C63.2367 11.3921 61.9732 12.1926 61.9732 13.1743C61.9732 14.156 63.2373 14.9565 64.7849 14.9565C66.3325 14.9565 67.5965 14.1554 67.5965 13.1743C67.5965 12.1932 66.3325 11.3921 64.7849 11.3921Z" fill="#FF00C5"/>
<path d="M99.5789 20.8975L100.894 21.5949L109.071 12.7606L97.0765 0C97.0765 0 94.8581 3.02207 97.5411 6.0185C90.9379 9.11806 85.8823 7.20647 79.5633 4.80431C74.843 3.02207 69.5033 0.981138 62.8239 0.981138C54.2352 0.981138 47.993 4.23567 41.9575 7.38708C36.6708 10.151 31.6664 12.76 25.5273 12.76C12.2953 12.7606 5.79577 5.11427 3.60306 1.8341C3.00975 0.929867 1.77191 0.6974 0.868856 1.29168C-0.0336164 1.88537 -0.26593 3.12577 0.327373 4.02942C5.6147 11.9595 15.0295 16.7125 25.5273 16.7125C27.8999 16.7125 30.0927 16.377 32.1817 15.8345H32.2336C34.9421 15.1371 38.8362 14.801 41.8533 17.1262C47.5808 21.5437 46.5992 32.9607 39.5843 43.1124L37.4429 46.1863H57.8189L44.2533 76.7193C43.7887 77.7785 44.1497 78.9921 45.104 79.6126C45.49 79.8707 45.929 80 46.368 80C47.0126 80 47.6321 79.7419 48.0961 79.2251L88.8232 34.3818H68.2923C76.7767 21.8536 90.0092 15.9382 99.526 20.8719L99.5789 20.8975ZM63.0818 35.4148L61.4044 38.3593H79.9761L51.8876 69.2797L63.8812 42.2862H44.7686C51.1901 31.0754 51.1389 19.3478 44.2533 14.0267C43.2973 13.2774 42.2155 12.7093 41.0795 12.2957C41.9826 11.8307 42.8862 11.3658 43.7893 10.9009C49.3858 7.9563 55.1895 4.93365 62.8233 4.93365C68.7819 4.93365 73.579 6.74153 78.195 8.49814C85.1336 11.1328 91.6855 13.5868 100.3 9.04057L103.705 12.7863L100.017 16.79C88.0489 11.7527 72.1345 19.6833 63.1074 35.4404L63.0818 35.4148Z" fill="#FF00C5"/>
</svg>
