<svg preserveAspectRatio="none" width="100%" height="100%" overflow="visible" style="display: block;" viewBox="0 0 25.5 25.5" fill="none" xmlns="http://www.w3.org/2000/svg">
<g id="Group">
<path id="Vector" d="M0.75 12.75C0.75 14.3259 1.06039 15.8863 1.66345 17.3422C2.2665 18.7981 3.15042 20.121 4.26472 21.2353C5.37902 22.3496 6.70189 23.2335 8.1578 23.8366C9.61371 24.4396 11.1741 24.75 12.75 24.75C14.3259 24.75 15.8863 24.4396 17.3422 23.8366C18.7981 23.2335 20.121 22.3496 21.2353 21.2353C22.3496 20.121 23.2335 18.7981 23.8366 17.3422C24.4396 15.8863 24.75 14.3259 24.75 12.75C24.75 11.1741 24.4396 9.61371 23.8366 8.1578C23.2335 6.70189 22.3496 5.37902 21.2353 4.26472C20.121 3.15042 18.7981 2.2665 17.3422 1.66345C15.8863 1.06039 14.3259 0.75 12.75 0.75C11.1741 0.75 9.61371 1.06039 8.1578 1.66345C6.70189 2.2665 5.37902 3.15042 4.26472 4.26472C3.15042 5.37902 2.2665 6.70189 1.66345 8.1578C1.06039 9.61371 0.75 11.1741 0.75 12.75Z" stroke="var(--stroke-0, white)" stroke-width="1.5" stroke-linecap="round" stroke-linejoin="round"/>
<path id="Vector_2" d="M10.0833 12.75C10.0833 13.4572 10.3643 14.1355 10.8644 14.6356C11.3645 15.1357 12.0428 15.4167 12.75 15.4167M10.0833 12.75C10.0833 12.0428 10.3643 11.3645 10.8644 10.8644C11.3645 10.3643 12.0428 10.0833 12.75 10.0833C13.4572 10.0833 14.1355 10.3643 14.6356 10.8644C15.1357 11.3645 15.4167 12.0428 15.4167 12.75M10.0833 12.75L1.08333 10.0833M12.75 15.4167C13.4572 15.4167 14.1355 15.1357 14.6356 14.6356C15.1357 14.1355 15.4167 13.4572 15.4167 12.75M12.75 15.4167V24.75M15.4167 12.75L24.4167 10.0833" stroke="var(--stroke-0, white)" stroke-width="1.5" stroke-linecap="round" stroke-linejoin="round"/>
</g>
</svg>
