<svg preserveAspectRatio="none" width="100%" height="100%" overflow="visible" style="display: block;" viewBox="0 0 25.5 25.5" fill="none" xmlns="http://www.w3.org/2000/svg">
<g id="Group">
<path id="Vector" d="M0.75 12.75C0.75 14.3259 1.06039 15.8863 1.66345 17.3422C2.2665 18.7981 3.15042 20.121 4.26472 21.2353C5.37902 22.3496 6.70189 23.2335 8.1578 23.8366C9.61371 24.4396 11.1741 24.75 12.75 24.75C14.3259 24.75 15.8863 24.4396 17.3422 23.8366C18.7981 23.2335 20.121 22.3496 21.2353 21.2353C22.3496 20.121 23.2335 18.7981 23.8366 17.3422C24.4396 15.8863 24.75 14.3259 24.75 12.75C24.75 11.1741 24.4396 9.61371 23.8366 8.1578C23.2335 6.70189 22.3496 5.37902 21.2353 4.26472C20.121 3.15042 18.7981 2.2665 17.3422 1.66345C15.8863 1.06039 14.3259 0.75 12.75 0.75C11.1741 0.75 9.61371 1.06039 8.1578 1.66345C6.70189 2.2665 5.37902 3.15042 4.26472 4.26472C3.15042 5.37902 2.2665 6.70189 1.66345 8.1578C1.06039 9.61371 0.75 11.1741 0.75 12.75Z" stroke="var(--stroke-0, white)" stroke-width="1.5" stroke-linecap="round" stroke-linejoin="round"/>
<path id="Vector_2" d="M0.75 12.75H8.75M8.75 10.0833C8.75 9.72971 8.89048 9.39057 9.14052 9.14052C9.39057 8.89048 9.72971 8.75 10.0833 8.75H15.4167C15.7703 8.75 16.1094 8.89048 16.3595 9.14052C16.6095 9.39057 16.75 9.72971 16.75 10.0833V15.4167C16.75 15.7703 16.6095 16.1094 16.3595 16.3595C16.1094 16.6095 15.7703 16.75 15.4167 16.75H10.0833C9.72971 16.75 9.39057 16.6095 9.14052 16.3595C8.89048 16.1094 8.75 15.7703 8.75 15.4167V10.0833Z" stroke="var(--stroke-0, white)" stroke-width="1.5" stroke-linecap="round" stroke-linejoin="round"/>
</g>
</svg>
