<svg preserveAspectRatio="none" width="100%" height="100%" overflow="visible" style="display: block;" viewBox="0 0 109.849 118.431" fill="none" xmlns="http://www.w3.org/2000/svg">
<g id="ePlug_Logo_Vertical_On_Dark">
<path id="Vector" d="M52.0649 107.559L64.0119 80.6878H44.7236L44.9045 80.3722C48.0321 74.9156 49.7143 69.1144 49.6428 64.0359C49.6071 61.5186 49.1523 59.2305 48.2912 57.235C47.4062 55.1852 46.1103 53.4918 44.44 52.2019C43.5394 51.4963 42.4832 50.9217 41.3005 50.4915L40.8465 50.3263L44.0046 48.7014C49.6406 45.7375 55.4694 42.6724 63.2713 42.6724C69.3561 42.6724 74.1711 44.5035 78.8276 46.2742C82.8186 47.7889 86.9459 49.3549 91.3463 49.3549C94.5654 49.3549 97.6961 48.5295 100.916 46.8309L101.06 46.755L104.73 50.7885L100.784 55.0691L100.648 55.0117C98.2803 54.0158 95.7124 53.5112 93.0158 53.5112C82.2596 53.5112 70.7688 61.433 63.7402 73.6934L63.6025 73.9338L63.5772 73.9085L62.2054 76.3156H81.0233L52.4139 107.788L52.0649 107.561V107.559Z" fill="var(--fill-0, #FF00C5)"/>
<g id="Vector_2">
<path d="M71.6363 52.1131C70.0777 52.1131 68.8042 52.9192 68.8042 53.9069C68.8042 54.8946 70.077 55.7007 71.6363 55.7007C73.1957 55.7007 74.4685 54.8946 74.4685 53.9069C74.4685 52.9192 73.1957 52.1131 71.6363 52.1131Z" fill="#2E0054"/>
<path d="M71.6363 50.4227C73.2001 50.4227 74.4685 49.6196 74.4685 48.6289C74.4685 47.6382 73.2009 46.8351 71.6363 46.8351C70.0718 46.8351 68.8042 47.6382 68.8042 48.6289C68.8042 49.6196 70.0718 50.4227 71.6363 50.4227Z" fill="#2E0054"/>
<path d="M58.3636 52.1131C56.805 52.1131 55.5315 52.9192 55.5315 53.9069C55.5315 54.8946 56.8043 55.7007 58.3636 55.7007C59.923 55.7007 61.1935 54.8946 61.1935 53.9069C61.1935 52.9192 59.9208 52.1131 58.3636 52.1131Z" fill="#2E0054"/>
<path d="M58.3636 46.8351C56.805 46.8351 55.5315 47.6412 55.5315 48.6289C55.5315 49.6166 56.8043 50.4227 58.3636 50.4227C59.923 50.4227 61.1935 49.6166 61.1935 48.6289C61.1935 47.6412 59.9208 46.8351 58.3636 46.8351Z" fill="#2E0054"/>
<path d="M78.8577 49.3837C77.3006 49.3837 76.0278 50.1897 76.0278 51.1775C76.0278 52.1652 77.3006 52.9713 78.8577 52.9713C80.4148 52.9713 81.6898 52.1652 81.6898 51.1775C81.6898 50.1897 80.4171 49.3837 78.8577 49.3837Z" fill="#2E0054"/>
<path d="M51.6343 49.3837C50.0757 49.3837 48.8021 50.1897 48.8021 51.1775C48.8021 52.1652 50.0749 52.9713 51.6343 52.9713C53.1936 52.9713 54.4664 52.1652 54.4664 51.1775C54.4664 50.1897 53.1936 49.3837 51.6343 49.3837Z" fill="#2E0054"/>
<path d="M65.2464 49.3837C63.6878 49.3837 62.4142 50.1897 62.4142 51.1775C62.4142 52.1652 63.687 52.9713 65.2464 52.9713C66.8057 52.9713 68.0785 52.1652 68.0785 51.1775C68.0785 50.1897 66.8057 49.3837 65.2464 49.3837Z" fill="#2E0054"/>
<path d="M100.289 58.9504L101.613 59.6523L109.848 50.7606L97.7686 37.9174C97.7686 37.9174 95.5349 40.9595 98.2361 43.9747C91.5856 47.0941 86.4944 45.1708 80.1298 42.7525C75.3758 40.9587 69.9981 38.9051 63.2709 38.9051C54.6212 38.9051 48.3339 42.1809 42.2558 45.3524C36.9317 48.1347 31.8912 50.7599 25.7089 50.7599C12.3826 50.7599 5.83707 43.0644 3.62867 39.7626C3.03098 38.8523 1.78425 38.6186 0.875436 39.2163C-0.0333768 39.8139 -0.267837 41.0622 0.329851 41.9717C5.65545 49.9531 15.1366 54.7368 25.7089 54.7368C28.0989 54.7368 30.3065 54.3989 32.4107 53.8525H32.4628C35.1908 53.1506 39.1126 52.8127 42.1516 55.1521C47.9194 59.5979 46.9309 71.0887 39.8666 81.306L37.7095 84.3994H58.2312L44.5692 115.129C44.1017 116.195 44.465 117.417 45.4259 118.041C45.8144 118.301 46.2566 118.431 46.6987 118.431C47.3477 118.431 47.9715 118.171 48.4389 117.651L89.4561 72.5178H68.7789C77.3237 59.9091 90.65 53.9553 100.235 58.9206L100.288 58.9467L100.289 58.9504ZM63.5322 73.5614L61.8433 76.5252H80.5473L52.2587 107.645L64.3383 80.4768H45.0895C51.5568 69.1937 51.5047 57.3903 44.5707 52.0349C43.6083 51.2809 42.5186 50.7093 41.3738 50.2932C42.2834 49.825 43.1929 49.3569 44.1025 48.8894C49.7385 45.9255 55.5836 42.8835 63.2724 42.8835C69.2731 42.8835 74.1045 44.7034 78.7535 46.4711C85.7412 49.1231 92.3403 51.5928 101.015 47.0175L104.445 50.7874L100.731 54.8172C88.6775 49.7476 72.6493 57.7289 63.5582 73.5881L63.5322 73.5621V73.5614Z" fill="#2E0054"/>
</g>
<g id="Vector_3">
<path d="M5.75436 11.5759H23.0925L24.2507 8.09618H6.91401L5.75436 11.5759Z" fill="#2E0054"/>
<path d="M6.91252 18.5129H20.774L21.9321 15.0332H4.59396L3.4358 18.5129L2.27764 21.9695L1.118 25.4492H18.4785L19.6143 21.9695H5.75436L6.91252 18.5129Z" fill="#2E0054"/>
<path d="M25.4081 15.034L24.2499 18.5137H38.1099L36.9741 21.9703H23.0903L21.9321 25.45L19.6136 32.3863H23.0903L25.4088 25.45H39.2688L42.7455 15.034H25.4081Z" fill="#2E0054"/>
<path d="M67.0148 15.034L64.7208 21.9703H54.313L56.6084 15.034H53.1541L49.6773 25.45H67.014L70.4907 15.034H67.014H67.0148Z" fill="#2E0054"/>
<path d="M73.9667 15.034L72.8085 18.5137L70.49 25.45H84.3514L83.1918 28.9297H69.3318L68.1737 32.4094H85.5103L91.3049 15.034H73.9667ZM85.5103 21.9703H75.1025L76.2622 18.4906H86.6685L85.5103 21.9703Z" fill="#2E0054"/>
<path d="M51.9937 8.09618H48.517L45.8359 16.1921L42.7455 25.4485H46.2222L49.6766 15.0325L51.9937 8.09618Z" fill="#2E0054"/>
</g>
<g id="Vector_4">
<path d="M61.9729 0.546478H60.2676V7.91523H61.9729V0.546478Z" fill="var(--fill-0, #FF00C5)"/>
<path d="M63.789 5.95916C63.789 6.61863 63.9721 7.11881 64.3346 7.48278C64.6986 7.82368 65.2218 8.00604 65.9036 8.00604C66.1522 8.00604 66.4023 7.98297 66.6531 7.91523C66.8809 7.84676 67.0849 7.75595 67.2434 7.64207L66.8117 6.48242C66.6301 6.61863 66.4023 6.68711 66.1522 6.68711C65.9259 6.68711 65.7674 6.61863 65.6304 6.48242C65.5166 6.34621 65.4474 6.16385 65.4474 5.93683V3.63987H66.8563V2.38941H65.4474V1.00126H63.8121V2.38867H62.9472V3.63912H63.8121V5.95916H63.7883H63.789Z" fill="var(--fill-0, #FF00C5)"/>
<path d="M68.3338 1.93389L67.8798 3.59372H68.9255L69.5381 2.0701C69.652 1.79693 69.7197 1.56992 69.7659 1.43371C69.8105 1.2975 69.8105 1.16054 69.8105 1.00126C69.8105 0.705763 69.719 0.455672 69.515 0.273313C69.3334 0.0916996 69.0833 0.000148437 68.7886 0.000148437C68.4938 0.000148437 68.243 0.0909553 68.0607 0.273313C67.879 0.454927 67.7652 0.705763 67.7652 1.00126C67.7652 1.22902 67.8113 1.41063 67.9237 1.56992C68.0152 1.7292 68.1515 1.84308 68.3331 1.91081V1.93389H68.3338Z" fill="var(--fill-0, #FF00C5)"/>
<path d="M72.6978 6.73251C72.3576 6.73251 71.9936 6.68711 71.6535 6.57323C71.3133 6.45935 70.994 6.34621 70.7439 6.18693L70.1998 7.36965C70.4708 7.55126 70.8124 7.68822 71.2672 7.80135C71.7212 7.91523 72.1767 7.96064 72.6531 7.96064C73.1987 7.96064 73.6765 7.89216 74.0844 7.73288C74.4938 7.57359 74.7885 7.3689 74.994 7.09648C75.1979 6.82332 75.3118 6.50549 75.3118 6.16385C75.3118 5.75448 75.1979 5.43591 74.994 5.18582C74.7885 4.93573 74.5176 4.79952 74.2206 4.70796C73.9251 4.61716 73.5403 4.54868 73.0848 4.45787C72.6754 4.3894 72.3807 4.32166 72.1767 4.25319C71.9936 4.18471 71.8812 4.07157 71.8812 3.88921C71.8812 3.72993 71.9713 3.61605 72.1537 3.50291C72.3353 3.41211 72.5854 3.3667 72.9478 3.3667C73.5396 3.3667 74.0837 3.50291 74.5846 3.79841L75.1302 2.63876C74.8801 2.47947 74.5399 2.36559 74.1529 2.27479C73.7666 2.18398 73.3572 2.13858 72.9478 2.13858C72.4023 2.13858 71.9482 2.20705 71.5389 2.36634C71.1295 2.52562 70.8347 2.73031 70.6308 3.00273C70.4253 3.2759 70.3115 3.59372 70.3115 3.95769C70.3115 4.3894 70.4254 4.70796 70.6531 4.93573C70.8794 5.16349 71.1295 5.32203 71.425 5.41358C71.7205 5.50439 72.1068 5.59519 72.5623 5.66367C72.9471 5.70907 73.2426 5.77755 73.4257 5.84528C73.6073 5.91376 73.7212 6.0269 73.7212 6.18618C73.7212 6.52708 73.3796 6.70944 72.6754 6.70944L72.6978 6.73251Z" fill="var(--fill-0, #FF00C5)"/>
<path d="M79.4904 7.89216H81.1272V3.61679H82.5362V2.36634H81.0825V2.11625C81.0825 1.57066 81.3326 1.2975 81.832 1.2975C82.0821 1.2975 82.3099 1.36597 82.4915 1.50218L82.9232 0.319461C82.787 0.228654 82.5831 0.137847 82.3776 0.092444C82.1737 0.0470405 81.9236 0.0239666 81.6735 0.0239666C80.9694 0.0239666 80.4461 0.20558 80.0598 0.592626C79.675 0.978928 79.4919 1.47985 79.4919 2.13932V2.38941H78.6285V3.64061H79.4919V7.91598V7.8929L79.4904 7.89216Z" fill="var(--fill-0, #FF00C5)"/>
<path d="M84.4237 3.61679C84.7192 3.52599 85.014 3.48058 85.3095 3.48058C85.7412 3.48058 86.059 3.57139 86.2868 3.77608C86.5145 3.95769 86.6046 4.25393 86.6046 4.59483H85.3095C84.4915 4.59483 83.8782 4.75411 83.4695 5.04961C83.0832 5.3451 82.8778 5.75448 82.8778 6.30081C82.8778 6.6417 82.9694 6.91487 83.1279 7.18803C83.2864 7.43812 83.5373 7.64281 83.8543 7.8021C84.1737 7.96138 84.56 8.02986 84.9917 8.02986C85.832 8.02986 86.4007 7.75669 86.7177 7.23418V7.93905H88.2406V4.70945C88.2406 3.86837 88.0129 3.23124 87.5365 2.82186C87.0586 2.41249 86.4007 2.2078 85.5134 2.2078C85.0594 2.2078 84.6054 2.27628 84.1737 2.38941C83.742 2.50329 83.378 2.68491 83.0602 2.88959L83.6504 4.02691C83.8543 3.86763 84.1044 3.73142 84.3999 3.64061L84.4237 3.61754V3.61679ZM86.6046 6.11845C86.5145 6.36854 86.3545 6.55015 86.1506 6.68711C85.9228 6.82332 85.6965 6.8918 85.401 6.8918C85.1055 6.8918 84.8778 6.82332 84.7192 6.71018C84.5607 6.5963 84.4692 6.41469 84.4692 6.21C84.4692 5.77829 84.8093 5.55053 85.4688 5.55053H86.5823V6.11919H86.6046V6.11845Z" fill="var(--fill-0, #FF00C5)"/>
<path d="M93.2156 4.73104C92.9201 4.64023 92.5338 4.57175 92.0798 4.48095C91.6704 4.41247 91.3757 4.34474 91.1717 4.27626C90.9886 4.20778 90.8748 4.09465 90.8748 3.91229C90.8748 3.753 90.9663 3.63912 91.1472 3.52599C91.3303 3.43518 91.5789 3.38978 91.9429 3.38978C92.5331 3.38978 93.0787 3.52599 93.5796 3.82223L94.1252 2.66258C93.8751 2.50329 93.535 2.38941 93.1479 2.2986C92.7616 2.2078 92.3522 2.16239 91.9429 2.16239C91.3973 2.16239 90.9432 2.23087 90.5339 2.39016C90.1476 2.54944 89.8297 2.75413 89.6243 3.02655C89.4204 3.29971 89.3065 3.61754 89.3065 3.98151C89.3065 4.41396 89.4204 4.73178 89.6481 4.95954C89.8744 5.18731 90.1245 5.34585 90.42 5.4374C90.7155 5.5282 91.1018 5.61901 91.5558 5.68749C91.9421 5.73289 92.2376 5.80137 92.4192 5.8691C92.6023 5.93758 92.7162 6.05072 92.7162 6.21C92.7162 6.5509 92.3746 6.73326 91.6704 6.73326C91.3303 6.73326 90.9663 6.68785 90.6262 6.57397C90.2622 6.48316 89.9667 6.34621 89.7166 6.18767L89.171 7.37039C89.4434 7.55275 89.7851 7.68896 90.2391 7.80284C90.6931 7.91672 91.1472 7.96213 91.625 7.96213C92.1706 7.96213 92.647 7.89365 93.0564 7.73511C93.4657 7.57582 93.7605 7.37114 93.9659 7.09797C94.1699 6.82481 94.2837 6.50698 94.2837 6.16534C94.2837 5.75597 94.1699 5.4374 93.9659 5.18731C93.7605 4.93721 93.4881 4.801 93.1926 4.70945L93.2149 4.73178L93.2156 4.73104Z" fill="var(--fill-0, #FF00C5)"/>
<path d="M98.5107 6.48242C98.3291 6.61863 98.1013 6.68711 97.8513 6.68711C97.625 6.68711 97.4664 6.61863 97.3295 6.48242C97.2156 6.34621 97.1464 6.16385 97.1464 5.93683V3.63987H98.5554V2.38941H97.1464V1.00126H95.5096V2.38867H94.6462V3.63912H95.5096V5.95916C95.5096 6.61863 95.6927 7.11881 96.0552 7.48278C96.4192 7.82368 96.9424 8.00604 97.6242 8.00604C97.8728 8.00604 98.1229 7.98297 98.3738 7.91523C98.6015 7.84676 98.8055 7.75595 98.964 7.64207L98.5323 6.48242H98.51H98.5107Z" fill="var(--fill-0, #FF00C5)"/>
<path d="M103.807 2.50255C103.353 2.25246 102.875 2.13858 102.307 2.13858C101.739 2.13858 101.216 2.25246 100.762 2.50255C100.308 2.75264 99.9435 3.09354 99.6704 3.54832C99.4203 4.00309 99.2841 4.48095 99.2841 5.04961C99.2841 5.61827 99.4203 6.11845 99.6934 6.5509C99.9659 6.98335 100.331 7.34657 100.829 7.59741C101.329 7.8475 101.875 7.96138 102.511 7.96138C103.534 7.96138 104.306 7.66589 104.852 7.05182L103.988 6.09686C103.784 6.27848 103.579 6.41543 103.351 6.50624C103.125 6.59705 102.875 6.64245 102.579 6.64245C102.147 6.64245 101.783 6.55164 101.511 6.34695C101.216 6.14227 101.035 5.8691 100.965 5.50513H105.238C105.238 5.23196 105.26 5.07342 105.26 5.05035C105.26 4.45936 105.124 3.93611 104.874 3.50366C104.625 3.04888 104.261 2.70798 103.807 2.48022V2.50329V2.50255ZM100.92 4.57175C100.965 4.20778 101.124 3.91229 101.374 3.7076C101.624 3.50291 101.942 3.38903 102.306 3.38903C102.67 3.38903 102.988 3.50291 103.238 3.7076C103.486 3.91229 103.647 4.20778 103.692 4.57175H100.897H100.92Z" fill="var(--fill-0, #FF00C5)"/>
<path d="M108.69 2.36634C108.348 2.50255 108.098 2.70724 107.894 2.9804V2.23013H106.327V7.8929H107.962V5.23196C107.962 4.70871 108.098 4.32241 108.371 4.04924C108.644 3.77608 109.009 3.66294 109.485 3.66294H109.849V2.13932C109.417 2.13932 109.031 2.2078 108.691 2.34401V2.36708L108.69 2.36634Z" fill="var(--fill-0, #FF00C5)"/>
</g>
</g>
</svg>
