<svg preserveAspectRatio="none" width="100%" height="100%" overflow="visible" style="display: block;" viewBox="0 0 91.6062 25.472" fill="none" xmlns="http://www.w3.org/2000/svg">
<g id="Vector">
<path fill-rule="evenodd" clip-rule="evenodd" d="M9.40389 3.38943C9.40389 1.65939 10.8037 0.259562 12.5338 0.259562C14.2638 0.259562 15.6636 1.65939 15.6636 3.38943C15.6636 5.11946 14.2638 6.5193 12.5338 6.5193C10.8037 6.5193 9.40389 5.11946 9.40389 3.38943ZM12.5338 9.62103C10.8037 9.62103 9.40389 11.0209 9.40389 12.7509C9.40389 14.4809 10.8037 15.8808 12.5338 15.8808C14.2638 15.8808 15.6636 14.4809 15.6636 12.7509C15.6636 11.0209 14.2638 9.62103 12.5338 9.62103ZM21.9306 9.62103C20.2007 9.62103 18.8008 11.0209 18.8008 12.7509C18.8008 14.4809 20.2007 15.8808 21.9306 15.8808C23.6607 15.8808 25.0605 14.4809 25.0605 12.7509C25.0605 11.0209 23.6607 9.62103 21.9306 9.62103ZM3.12987 9.62103C1.39982 9.62103 0 11.0209 0 12.7509C0 14.4809 1.39982 15.8879 3.12987 15.8879C4.8599 15.8879 6.25973 14.4881 6.25973 12.7581C6.25973 11.028 4.8599 9.62822 3.12987 9.62822V9.62103ZM11.9021 18.9673H13.1583V25.2342H11.9021V18.9673Z" fill="var(--fill-0, white)"/>
<path d="M50.5729 4.97638C50.3054 2.54417 48.4113 1.00461 46.3306 1.00461C44.2499 1.00461 42.3588 2.54417 42.0758 4.97638H40.9436C41.2391 1.90968 43.6993 0 46.343 0C48.9867 0 51.4189 1.90968 51.702 4.97638H50.5729Z" fill="var(--fill-0, white)"/>
<path d="M51.705 6.20491C51.422 9.28719 49.0054 11.1968 46.3461 11.1968C43.6869 11.1968 41.2298 9.28719 40.9468 6.20491H42.0789C42.3464 8.63711 44.2405 10.1922 46.3337 10.1922C48.4269 10.1922 50.3054 8.63711 50.576 6.20491H51.705Z" fill="var(--fill-0, white)"/>
<path d="M31.4108 10.8981V0.29535H30.2786V10.8981H31.4108Z" fill="var(--fill-0, white)"/>
<path d="M32.6424 10.9012H34.0265C37.1927 10.9012 39.1428 8.3571 39.1428 5.59829C39.1428 2.83952 37.1927 0.29535 34.0265 0.29535H32.6424V1.29063H33.8865C36.4183 1.29063 38.0014 3.34027 38.0014 5.60141C38.0014 7.86255 36.4183 9.91221 33.8865 9.91221H32.6424V10.9012Z" fill="var(--fill-0, white)"/>
<path d="M58.9985 8.12724L64.286 0.706217H64.2829L63.3653 0.0561784L58.9954 6.24866L54.6131 0.0561784L53.6956 0.706217L58.9985 8.12724Z" fill="var(--fill-0, white)"/>
<path d="M53.9786 10.9015H55.1107V4.05905H53.9786V10.9015Z" fill="var(--fill-0, white)"/>
<path d="M62.8553 10.9015H63.9873V4.05905H62.8553V10.9015Z" fill="var(--fill-0, white)"/>
<path d="M67.9 10.9012H66.7679V0.29535H67.9V10.9012Z" fill="var(--fill-0, white)"/>
<path d="M78.7128 10.56L78.7143 10.559V10.5622L78.7128 10.56L77.8092 11.1531L70.4722 0.637428L71.3897 0.0433731L78.7128 10.56Z" fill="var(--fill-0, white)"/>
<path d="M70.6402 10.9012H71.7723V3.83163H70.6402V10.9012Z" fill="var(--fill-0, white)"/>
<path d="M77.4951 7.36486H78.6272V0.295302H77.4951V7.36486Z" fill="var(--fill-0, white)"/>
<path d="M90.4741 4.97638C90.2066 2.54417 88.3125 1.00461 86.2317 1.00461C84.151 1.00461 82.26 2.54417 81.977 4.97638H80.8448C81.1403 1.90968 83.6005 0 86.2441 0C88.8878 0 91.3201 1.90968 91.6031 4.97638H90.4741Z" fill="var(--fill-0, white)"/>
<path d="M91.6062 6.20491C91.3232 9.28719 88.9066 11.1968 86.2473 11.1968C83.5881 11.1968 81.1309 9.28719 80.8479 6.20491H81.9801C82.2475 8.63711 84.1416 10.1922 86.2349 10.1922C88.328 10.1922 90.2066 8.63711 90.4772 6.20491H91.6062Z" fill="var(--fill-0, white)"/>
<path d="M30.2786 25.2449H31.4108V14.639H30.2786V25.2449Z" fill="var(--fill-0, white)"/>
<path d="M32.6391 20.4365H34.2225C35.821 20.4365 37.1212 19.1364 37.1212 17.5378C37.1212 15.9391 35.821 14.639 34.2225 14.639H32.6391V15.6281H34.1791C35.2269 15.6281 35.9889 16.4772 35.9889 17.5378C35.9889 18.5984 35.2235 19.4474 34.1791 19.4474H32.6391V20.4365Z" fill="var(--fill-0, white)"/>
<path d="M43.043 22.2904H39.6246L38.3653 25.4443L37.2925 25.0616L40.5304 16.9595L41.6032 17.3421L40.0039 21.3014H43.043V22.2904Z" fill="var(--fill-0, white)"/>
<path d="M46.8766 25.059L46.8783 25.0586V25.0616L46.8766 25.059L45.8046 25.4411L41.5222 14.8383L42.5951 14.4713L46.8766 25.059Z" fill="var(--fill-0, white)"/>
<path d="M48.6815 25.2449H49.8137V14.639H48.6815V25.2449Z" fill="var(--fill-0, white)"/>
<path d="M54.6785 25.472L55.6118 24.8064L51.7949 19.7305L50.8624 20.3961L54.6785 25.472Z" fill="var(--fill-0, white)"/>
<path d="M53.6022 20.2374L53.0925 19.3324C53.8136 19.0493 54.1963 18.3558 54.1963 17.5938C54.1963 16.5612 53.5187 15.6281 52.3021 15.6281H51.0428V14.639H52.343C54.1245 14.639 55.3252 16.0231 55.3252 17.5938C55.3252 18.725 54.7052 19.7859 53.6022 20.2374Z" fill="var(--fill-0, white)"/>
<path d="M58.8372 25.2451H57.705V14.6391H58.8372V25.2451Z" fill="var(--fill-0, white)"/>
<path d="M64.6345 24.8469L63.7295 25.441L59.4864 19.9545L63.7295 14.4556L64.6345 15.0497L60.8025 19.9545L64.6345 24.8469Z" fill="var(--fill-0, white)"/>
</g>
</svg>
