<svg preserveAspectRatio="none" width="100%" height="100%" overflow="visible" style="display: block;" viewBox="0 0 622 1135" fill="none" xmlns="http://www.w3.org/2000/svg">
<g id="Frame 1000011277">
<g id="Vector">
<path d="M554.391 270.238H500.304V297.262L554.391 270.238Z" fill="url(#paint0_radial_248_685)"/>
<path d="M622 270.238H594.957V283.75L622 270.238Z" fill="url(#paint1_radial_248_685)"/>
<path d="M622 337.798H594.957V351.31L622 337.798Z" fill="url(#paint2_radial_248_685)"/>
<path d="M622 405.357H594.957V418.869L622 405.357Z" fill="url(#paint3_radial_248_685)"/>
<path d="M622 472.917H594.957V486.429L622 472.917Z" fill="url(#paint4_radial_248_685)"/>
<path d="M473.261 270.238H392.13V310.774L473.261 270.238Z" fill="url(#paint5_radial_248_685)"/>
<path d="M378.609 270.238H243.391V337.798L378.609 270.238Z" fill="url(#paint6_radial_248_685)"/>
<path d="M554.391 337.798H500.304V364.821L554.391 337.798Z" fill="url(#paint7_radial_248_685)"/>
<path d="M473.261 337.798L392.13 337.798V378.333L473.261 337.798Z" fill="url(#paint8_radial_248_685)"/>
<path d="M378.609 337.798H243.391V405.357L378.609 337.798Z" fill="url(#paint9_radial_248_685)"/>
<path d="M554.391 405.357H500.304V432.381L554.391 405.357Z" fill="url(#paint10_radial_248_685)"/>
<path d="M473.261 405.357L392.13 405.357V445.893L473.261 405.357Z" fill="url(#paint11_radial_248_685)"/>
<path d="M378.609 405.357L243.391 405.357V472.917L378.609 405.357Z" fill="url(#paint12_radial_248_685)"/>
<path d="M554.391 472.917H500.304V499.941L554.391 472.917Z" fill="url(#paint13_radial_248_685)"/>
<path d="M473.261 472.917L392.13 472.917V513.452L473.261 472.917Z" fill="url(#paint14_radial_248_685)"/>
<path d="M378.609 472.917H243.391V540.476L378.609 472.917Z" fill="url(#paint15_radial_248_685)"/>
<path d="M554.391 2.42176e-05L500.304 2.18549e-05V27.0238L554.391 2.42176e-05Z" fill="url(#paint16_radial_248_685)"/>
<path d="M622 2.7171e-05L594.957 2.59896e-05V13.5119L622 2.7171e-05Z" fill="url(#paint17_radial_248_685)"/>
<path d="M622 67.5596L594.957 67.5596V81.0715L622 67.5596Z" fill="url(#paint18_radial_248_685)"/>
<path d="M622 135.119H594.957V148.631L622 135.119Z" fill="url(#paint19_radial_248_685)"/>
<path d="M622 202.679H594.957V216.191L622 202.679Z" fill="url(#paint20_radial_248_685)"/>
<path d="M473.261 2.06736e-05L392.13 1.71295e-05V40.5357L473.261 2.06736e-05Z" fill="url(#paint21_radial_248_685)"/>
<path d="M378.609 1.65388e-05L243.391 1.06321e-05V67.5595L378.609 1.65388e-05Z" fill="url(#paint22_radial_248_685)"/>
<path d="M554.391 67.5596H500.304V94.5834L554.391 67.5596Z" fill="url(#paint23_radial_248_685)"/>
<path d="M473.261 67.5595H392.13V108.095L473.261 67.5595Z" fill="url(#paint24_radial_248_685)"/>
<path d="M378.609 67.5595H243.391V135.119L378.609 67.5595Z" fill="url(#paint25_radial_248_685)"/>
<path d="M554.391 135.119H500.304V162.143L554.391 135.119Z" fill="url(#paint26_radial_248_685)"/>
<path d="M473.261 135.119H392.13V175.655L473.261 135.119Z" fill="url(#paint27_radial_248_685)"/>
<path d="M378.609 135.119L243.391 135.119V202.679L378.609 135.119Z" fill="url(#paint28_radial_248_685)"/>
<path d="M554.391 202.679H500.304V229.702L554.391 202.679Z" fill="url(#paint29_radial_248_685)"/>
<path d="M473.261 202.679H392.13V243.214L473.261 202.679Z" fill="url(#paint30_radial_248_685)"/>
<path d="M378.609 202.679H243.391L243.391 270.238L378.609 202.679Z" fill="url(#paint31_radial_248_685)"/>
<path d="M554.391 810.714H500.304V837.738L554.391 810.714Z" fill="url(#paint32_radial_248_685)"/>
<path d="M622 810.714H594.957V824.226L622 810.714Z" fill="url(#paint33_radial_248_685)"/>
<path d="M622 878.274H594.957V891.786L622 878.274Z" fill="url(#paint34_radial_248_685)"/>
<path d="M622 945.833H594.957V959.345L622 945.833Z" fill="url(#paint35_radial_248_685)"/>
<path d="M622 1013.39H594.957V1026.9L622 1013.39Z" fill="url(#paint36_radial_248_685)"/>
<path d="M473.261 810.714H392.13V851.25L473.261 810.714Z" fill="url(#paint37_radial_248_685)"/>
<path d="M378.609 810.714H243.391V878.274L378.609 810.714Z" fill="url(#paint38_radial_248_685)"/>
<path d="M554.391 878.274H500.304V905.298L554.391 878.274Z" fill="url(#paint39_radial_248_685)"/>
<path d="M473.261 878.274H392.13V918.809L473.261 878.274Z" fill="url(#paint40_radial_248_685)"/>
<path d="M378.609 878.274L243.391 878.274V945.833L378.609 878.274Z" fill="url(#paint41_radial_248_685)"/>
<path d="M554.391 945.833H500.304V972.857L554.391 945.833Z" fill="url(#paint42_radial_248_685)"/>
<path d="M473.261 945.833H392.13V986.369L473.261 945.833Z" fill="url(#paint43_radial_248_685)"/>
<path d="M378.609 945.833L243.391 945.833V1013.39L378.609 945.833Z" fill="url(#paint44_radial_248_685)"/>
<path d="M554.391 1013.39H500.304V1040.42L554.391 1013.39Z" fill="url(#paint45_radial_248_685)"/>
<path d="M473.261 1013.39H392.13V1053.93L473.261 1013.39Z" fill="url(#paint46_radial_248_685)"/>
<path d="M378.609 1013.39H243.391V1080.95L378.609 1013.39Z" fill="url(#paint47_radial_248_685)"/>
<path d="M243.391 1013.39L108.174 1013.39L243.391 945.833H108.174L243.391 878.274L108.174 878.274L243.391 810.714H108.174L243.391 743.155H108.174L243.391 675.595L108.174 675.595L243.391 608.036H108.174L243.391 540.476L108.174 540.476L243.391 472.917L108.174 472.917L243.391 405.357L108.174 405.357L243.391 337.798H108.174L243.391 270.238L108.174 270.238L243.391 202.679L108.174 202.679L243.391 135.119L108.174 135.119L243.391 67.5595L108.174 67.5595L243.391 1.06321e-05L4.96444e-05 0L0 1135L243.391 1013.39Z" fill="url(#paint48_radial_248_685)"/>
<path d="M554.391 540.476H500.304V567.5L554.391 540.476Z" fill="url(#paint49_radial_248_685)"/>
<path d="M622 540.476H594.957V553.988L622 540.476Z" fill="url(#paint50_radial_248_685)"/>
<path d="M622 608.036H594.957V621.548L622 608.036Z" fill="url(#paint51_radial_248_685)"/>
<path d="M622 675.595H594.957V689.107L622 675.595Z" fill="url(#paint52_radial_248_685)"/>
<path d="M622 743.155H594.957V756.667L622 743.155Z" fill="url(#paint53_radial_248_685)"/>
<path d="M473.261 540.476L392.13 540.476V581.012L473.261 540.476Z" fill="url(#paint54_radial_248_685)"/>
<path d="M378.609 540.476L243.391 540.476L243.391 608.036L378.609 540.476Z" fill="url(#paint55_radial_248_685)"/>
<path d="M554.391 608.036H500.304V635.06L554.391 608.036Z" fill="url(#paint56_radial_248_685)"/>
<path d="M473.261 608.036L392.13 608.036V648.571L473.261 608.036Z" fill="url(#paint57_radial_248_685)"/>
<path d="M378.609 608.036H243.391L243.391 675.595L378.609 608.036Z" fill="url(#paint58_radial_248_685)"/>
<path d="M554.391 675.595H500.304V702.619L554.391 675.595Z" fill="url(#paint59_radial_248_685)"/>
<path d="M473.261 675.595H392.13V716.131L473.261 675.595Z" fill="url(#paint60_radial_248_685)"/>
<path d="M378.609 675.595H243.391V743.155L378.609 675.595Z" fill="url(#paint61_radial_248_685)"/>
<path d="M554.391 743.155H500.304V770.179L554.391 743.155Z" fill="url(#paint62_radial_248_685)"/>
<path d="M473.261 743.155H392.13V783.69L473.261 743.155Z" fill="url(#paint63_radial_248_685)"/>
<path d="M378.609 743.155H243.391V810.714L378.609 743.155Z" fill="url(#paint64_radial_248_685)"/>
</g>
</g>
<defs>
<radialGradient id="paint0_radial_248_685" cx="0" cy="0" r="1" gradientUnits="userSpaceOnUse" gradientTransform="translate(74 553) rotate(73.5587) scale(468.142 468.142)">
<stop stop-color="#FF00C5" stop-opacity="0.12"/>
<stop offset="1" stop-color="#FF00C5" stop-opacity="0"/>
</radialGradient>
<radialGradient id="paint1_radial_248_685" cx="0" cy="0" r="1" gradientUnits="userSpaceOnUse" gradientTransform="translate(74 553) rotate(73.5587) scale(468.142 468.142)">
<stop stop-color="#FF00C5" stop-opacity="0.12"/>
<stop offset="1" stop-color="#FF00C5" stop-opacity="0"/>
</radialGradient>
<radialGradient id="paint2_radial_248_685" cx="0" cy="0" r="1" gradientUnits="userSpaceOnUse" gradientTransform="translate(74 553) rotate(73.5587) scale(468.142 468.142)">
<stop stop-color="#FF00C5" stop-opacity="0.12"/>
<stop offset="1" stop-color="#FF00C5" stop-opacity="0"/>
</radialGradient>
<radialGradient id="paint3_radial_248_685" cx="0" cy="0" r="1" gradientUnits="userSpaceOnUse" gradientTransform="translate(74 553) rotate(73.5587) scale(468.142 468.142)">
<stop stop-color="#FF00C5" stop-opacity="0.12"/>
<stop offset="1" stop-color="#FF00C5" stop-opacity="0"/>
</radialGradient>
<radialGradient id="paint4_radial_248_685" cx="0" cy="0" r="1" gradientUnits="userSpaceOnUse" gradientTransform="translate(74 553) rotate(73.5587) scale(468.142 468.142)">
<stop stop-color="#FF00C5" stop-opacity="0.12"/>
<stop offset="1" stop-color="#FF00C5" stop-opacity="0"/>
</radialGradient>
<radialGradient id="paint5_radial_248_685" cx="0" cy="0" r="1" gradientUnits="userSpaceOnUse" gradientTransform="translate(74 553) rotate(73.5587) scale(468.142 468.142)">
<stop stop-color="#FF00C5" stop-opacity="0.12"/>
<stop offset="1" stop-color="#FF00C5" stop-opacity="0"/>
</radialGradient>
<radialGradient id="paint6_radial_248_685" cx="0" cy="0" r="1" gradientUnits="userSpaceOnUse" gradientTransform="translate(74 553) rotate(73.5587) scale(468.142 468.142)">
<stop stop-color="#FF00C5" stop-opacity="0.12"/>
<stop offset="1" stop-color="#FF00C5" stop-opacity="0"/>
</radialGradient>
<radialGradient id="paint7_radial_248_685" cx="0" cy="0" r="1" gradientUnits="userSpaceOnUse" gradientTransform="translate(74 553) rotate(73.5587) scale(468.142 468.142)">
<stop stop-color="#FF00C5" stop-opacity="0.12"/>
<stop offset="1" stop-color="#FF00C5" stop-opacity="0"/>
</radialGradient>
<radialGradient id="paint8_radial_248_685" cx="0" cy="0" r="1" gradientUnits="userSpaceOnUse" gradientTransform="translate(74 553) rotate(73.5587) scale(468.142 468.142)">
<stop stop-color="#FF00C5" stop-opacity="0.12"/>
<stop offset="1" stop-color="#FF00C5" stop-opacity="0"/>
</radialGradient>
<radialGradient id="paint9_radial_248_685" cx="0" cy="0" r="1" gradientUnits="userSpaceOnUse" gradientTransform="translate(74 553) rotate(73.5587) scale(468.142 468.142)">
<stop stop-color="#FF00C5" stop-opacity="0.12"/>
<stop offset="1" stop-color="#FF00C5" stop-opacity="0"/>
</radialGradient>
<radialGradient id="paint10_radial_248_685" cx="0" cy="0" r="1" gradientUnits="userSpaceOnUse" gradientTransform="translate(74 553) rotate(73.5587) scale(468.142 468.142)">
<stop stop-color="#FF00C5" stop-opacity="0.12"/>
<stop offset="1" stop-color="#FF00C5" stop-opacity="0"/>
</radialGradient>
<radialGradient id="paint11_radial_248_685" cx="0" cy="0" r="1" gradientUnits="userSpaceOnUse" gradientTransform="translate(74 553) rotate(73.5587) scale(468.142 468.142)">
<stop stop-color="#FF00C5" stop-opacity="0.12"/>
<stop offset="1" stop-color="#FF00C5" stop-opacity="0"/>
</radialGradient>
<radialGradient id="paint12_radial_248_685" cx="0" cy="0" r="1" gradientUnits="userSpaceOnUse" gradientTransform="translate(74 553) rotate(73.5587) scale(468.142 468.142)">
<stop stop-color="#FF00C5" stop-opacity="0.12"/>
<stop offset="1" stop-color="#FF00C5" stop-opacity="0"/>
</radialGradient>
<radialGradient id="paint13_radial_248_685" cx="0" cy="0" r="1" gradientUnits="userSpaceOnUse" gradientTransform="translate(74 553) rotate(73.5587) scale(468.142 468.142)">
<stop stop-color="#FF00C5" stop-opacity="0.12"/>
<stop offset="1" stop-color="#FF00C5" stop-opacity="0"/>
</radialGradient>
<radialGradient id="paint14_radial_248_685" cx="0" cy="0" r="1" gradientUnits="userSpaceOnUse" gradientTransform="translate(74 553) rotate(73.5587) scale(468.142 468.142)">
<stop stop-color="#FF00C5" stop-opacity="0.12"/>
<stop offset="1" stop-color="#FF00C5" stop-opacity="0"/>
</radialGradient>
<radialGradient id="paint15_radial_248_685" cx="0" cy="0" r="1" gradientUnits="userSpaceOnUse" gradientTransform="translate(74 553) rotate(73.5587) scale(468.142 468.142)">
<stop stop-color="#FF00C5" stop-opacity="0.12"/>
<stop offset="1" stop-color="#FF00C5" stop-opacity="0"/>
</radialGradient>
<radialGradient id="paint16_radial_248_685" cx="0" cy="0" r="1" gradientUnits="userSpaceOnUse" gradientTransform="translate(74 553) rotate(73.5587) scale(468.142 468.142)">
<stop stop-color="#FF00C5" stop-opacity="0.12"/>
<stop offset="1" stop-color="#FF00C5" stop-opacity="0"/>
</radialGradient>
<radialGradient id="paint17_radial_248_685" cx="0" cy="0" r="1" gradientUnits="userSpaceOnUse" gradientTransform="translate(74 553) rotate(73.5587) scale(468.142 468.142)">
<stop stop-color="#FF00C5" stop-opacity="0.12"/>
<stop offset="1" stop-color="#FF00C5" stop-opacity="0"/>
</radialGradient>
<radialGradient id="paint18_radial_248_685" cx="0" cy="0" r="1" gradientUnits="userSpaceOnUse" gradientTransform="translate(74 553) rotate(73.5587) scale(468.142 468.142)">
<stop stop-color="#FF00C5" stop-opacity="0.12"/>
<stop offset="1" stop-color="#FF00C5" stop-opacity="0"/>
</radialGradient>
<radialGradient id="paint19_radial_248_685" cx="0" cy="0" r="1" gradientUnits="userSpaceOnUse" gradientTransform="translate(74 553) rotate(73.5587) scale(468.142 468.142)">
<stop stop-color="#FF00C5" stop-opacity="0.12"/>
<stop offset="1" stop-color="#FF00C5" stop-opacity="0"/>
</radialGradient>
<radialGradient id="paint20_radial_248_685" cx="0" cy="0" r="1" gradientUnits="userSpaceOnUse" gradientTransform="translate(74 553) rotate(73.5587) scale(468.142 468.142)">
<stop stop-color="#FF00C5" stop-opacity="0.12"/>
<stop offset="1" stop-color="#FF00C5" stop-opacity="0"/>
</radialGradient>
<radialGradient id="paint21_radial_248_685" cx="0" cy="0" r="1" gradientUnits="userSpaceOnUse" gradientTransform="translate(74 553) rotate(73.5587) scale(468.142 468.142)">
<stop stop-color="#FF00C5" stop-opacity="0.12"/>
<stop offset="1" stop-color="#FF00C5" stop-opacity="0"/>
</radialGradient>
<radialGradient id="paint22_radial_248_685" cx="0" cy="0" r="1" gradientUnits="userSpaceOnUse" gradientTransform="translate(74 553) rotate(73.5587) scale(468.142 468.142)">
<stop stop-color="#FF00C5" stop-opacity="0.12"/>
<stop offset="1" stop-color="#FF00C5" stop-opacity="0"/>
</radialGradient>
<radialGradient id="paint23_radial_248_685" cx="0" cy="0" r="1" gradientUnits="userSpaceOnUse" gradientTransform="translate(74 553) rotate(73.5587) scale(468.142 468.142)">
<stop stop-color="#FF00C5" stop-opacity="0.12"/>
<stop offset="1" stop-color="#FF00C5" stop-opacity="0"/>
</radialGradient>
<radialGradient id="paint24_radial_248_685" cx="0" cy="0" r="1" gradientUnits="userSpaceOnUse" gradientTransform="translate(74 553) rotate(73.5587) scale(468.142 468.142)">
<stop stop-color="#FF00C5" stop-opacity="0.12"/>
<stop offset="1" stop-color="#FF00C5" stop-opacity="0"/>
</radialGradient>
<radialGradient id="paint25_radial_248_685" cx="0" cy="0" r="1" gradientUnits="userSpaceOnUse" gradientTransform="translate(74 553) rotate(73.5587) scale(468.142 468.142)">
<stop stop-color="#FF00C5" stop-opacity="0.12"/>
<stop offset="1" stop-color="#FF00C5" stop-opacity="0"/>
</radialGradient>
<radialGradient id="paint26_radial_248_685" cx="0" cy="0" r="1" gradientUnits="userSpaceOnUse" gradientTransform="translate(74 553) rotate(73.5587) scale(468.142 468.142)">
<stop stop-color="#FF00C5" stop-opacity="0.12"/>
<stop offset="1" stop-color="#FF00C5" stop-opacity="0"/>
</radialGradient>
<radialGradient id="paint27_radial_248_685" cx="0" cy="0" r="1" gradientUnits="userSpaceOnUse" gradientTransform="translate(74 553) rotate(73.5587) scale(468.142 468.142)">
<stop stop-color="#FF00C5" stop-opacity="0.12"/>
<stop offset="1" stop-color="#FF00C5" stop-opacity="0"/>
</radialGradient>
<radialGradient id="paint28_radial_248_685" cx="0" cy="0" r="1" gradientUnits="userSpaceOnUse" gradientTransform="translate(74 553) rotate(73.5587) scale(468.142 468.142)">
<stop stop-color="#FF00C5" stop-opacity="0.12"/>
<stop offset="1" stop-color="#FF00C5" stop-opacity="0"/>
</radialGradient>
<radialGradient id="paint29_radial_248_685" cx="0" cy="0" r="1" gradientUnits="userSpaceOnUse" gradientTransform="translate(74 553) rotate(73.5587) scale(468.142 468.142)">
<stop stop-color="#FF00C5" stop-opacity="0.12"/>
<stop offset="1" stop-color="#FF00C5" stop-opacity="0"/>
</radialGradient>
<radialGradient id="paint30_radial_248_685" cx="0" cy="0" r="1" gradientUnits="userSpaceOnUse" gradientTransform="translate(74 553) rotate(73.5587) scale(468.142 468.142)">
<stop stop-color="#FF00C5" stop-opacity="0.12"/>
<stop offset="1" stop-color="#FF00C5" stop-opacity="0"/>
</radialGradient>
<radialGradient id="paint31_radial_248_685" cx="0" cy="0" r="1" gradientUnits="userSpaceOnUse" gradientTransform="translate(74 553) rotate(73.5587) scale(468.142 468.142)">
<stop stop-color="#FF00C5" stop-opacity="0.12"/>
<stop offset="1" stop-color="#FF00C5" stop-opacity="0"/>
</radialGradient>
<radialGradient id="paint32_radial_248_685" cx="0" cy="0" r="1" gradientUnits="userSpaceOnUse" gradientTransform="translate(74 553) rotate(73.5587) scale(468.142 468.142)">
<stop stop-color="#FF00C5" stop-opacity="0.12"/>
<stop offset="1" stop-color="#FF00C5" stop-opacity="0"/>
</radialGradient>
<radialGradient id="paint33_radial_248_685" cx="0" cy="0" r="1" gradientUnits="userSpaceOnUse" gradientTransform="translate(74 553) rotate(73.5587) scale(468.142 468.142)">
<stop stop-color="#FF00C5" stop-opacity="0.12"/>
<stop offset="1" stop-color="#FF00C5" stop-opacity="0"/>
</radialGradient>
<radialGradient id="paint34_radial_248_685" cx="0" cy="0" r="1" gradientUnits="userSpaceOnUse" gradientTransform="translate(74 553) rotate(73.5587) scale(468.142 468.142)">
<stop stop-color="#FF00C5" stop-opacity="0.12"/>
<stop offset="1" stop-color="#FF00C5" stop-opacity="0"/>
</radialGradient>
<radialGradient id="paint35_radial_248_685" cx="0" cy="0" r="1" gradientUnits="userSpaceOnUse" gradientTransform="translate(74 553) rotate(73.5587) scale(468.142 468.142)">
<stop stop-color="#FF00C5" stop-opacity="0.12"/>
<stop offset="1" stop-color="#FF00C5" stop-opacity="0"/>
</radialGradient>
<radialGradient id="paint36_radial_248_685" cx="0" cy="0" r="1" gradientUnits="userSpaceOnUse" gradientTransform="translate(74 553) rotate(73.5587) scale(468.142 468.142)">
<stop stop-color="#FF00C5" stop-opacity="0.12"/>
<stop offset="1" stop-color="#FF00C5" stop-opacity="0"/>
</radialGradient>
<radialGradient id="paint37_radial_248_685" cx="0" cy="0" r="1" gradientUnits="userSpaceOnUse" gradientTransform="translate(74 553) rotate(73.5587) scale(468.142 468.142)">
<stop stop-color="#FF00C5" stop-opacity="0.12"/>
<stop offset="1" stop-color="#FF00C5" stop-opacity="0"/>
</radialGradient>
<radialGradient id="paint38_radial_248_685" cx="0" cy="0" r="1" gradientUnits="userSpaceOnUse" gradientTransform="translate(74 553) rotate(73.5587) scale(468.142 468.142)">
<stop stop-color="#FF00C5" stop-opacity="0.12"/>
<stop offset="1" stop-color="#FF00C5" stop-opacity="0"/>
</radialGradient>
<radialGradient id="paint39_radial_248_685" cx="0" cy="0" r="1" gradientUnits="userSpaceOnUse" gradientTransform="translate(74 553) rotate(73.5587) scale(468.142 468.142)">
<stop stop-color="#FF00C5" stop-opacity="0.12"/>
<stop offset="1" stop-color="#FF00C5" stop-opacity="0"/>
</radialGradient>
<radialGradient id="paint40_radial_248_685" cx="0" cy="0" r="1" gradientUnits="userSpaceOnUse" gradientTransform="translate(74 553) rotate(73.5587) scale(468.142 468.142)">
<stop stop-color="#FF00C5" stop-opacity="0.12"/>
<stop offset="1" stop-color="#FF00C5" stop-opacity="0"/>
</radialGradient>
<radialGradient id="paint41_radial_248_685" cx="0" cy="0" r="1" gradientUnits="userSpaceOnUse" gradientTransform="translate(74 553) rotate(73.5587) scale(468.142 468.142)">
<stop stop-color="#FF00C5" stop-opacity="0.12"/>
<stop offset="1" stop-color="#FF00C5" stop-opacity="0"/>
</radialGradient>
<radialGradient id="paint42_radial_248_685" cx="0" cy="0" r="1" gradientUnits="userSpaceOnUse" gradientTransform="translate(74 553) rotate(73.5587) scale(468.142 468.142)">
<stop stop-color="#FF00C5" stop-opacity="0.12"/>
<stop offset="1" stop-color="#FF00C5" stop-opacity="0"/>
</radialGradient>
<radialGradient id="paint43_radial_248_685" cx="0" cy="0" r="1" gradientUnits="userSpaceOnUse" gradientTransform="translate(74 553) rotate(73.5587) scale(468.142 468.142)">
<stop stop-color="#FF00C5" stop-opacity="0.12"/>
<stop offset="1" stop-color="#FF00C5" stop-opacity="0"/>
</radialGradient>
<radialGradient id="paint44_radial_248_685" cx="0" cy="0" r="1" gradientUnits="userSpaceOnUse" gradientTransform="translate(74 553) rotate(73.5587) scale(468.142 468.142)">
<stop stop-color="#FF00C5" stop-opacity="0.12"/>
<stop offset="1" stop-color="#FF00C5" stop-opacity="0"/>
</radialGradient>
<radialGradient id="paint45_radial_248_685" cx="0" cy="0" r="1" gradientUnits="userSpaceOnUse" gradientTransform="translate(74 553) rotate(73.5587) scale(468.142 468.142)">
<stop stop-color="#FF00C5" stop-opacity="0.12"/>
<stop offset="1" stop-color="#FF00C5" stop-opacity="0"/>
</radialGradient>
<radialGradient id="paint46_radial_248_685" cx="0" cy="0" r="1" gradientUnits="userSpaceOnUse" gradientTransform="translate(74 553) rotate(73.5587) scale(468.142 468.142)">
<stop stop-color="#FF00C5" stop-opacity="0.12"/>
<stop offset="1" stop-color="#FF00C5" stop-opacity="0"/>
</radialGradient>
<radialGradient id="paint47_radial_248_685" cx="0" cy="0" r="1" gradientUnits="userSpaceOnUse" gradientTransform="translate(74 553) rotate(73.5587) scale(468.142 468.142)">
<stop stop-color="#FF00C5" stop-opacity="0.12"/>
<stop offset="1" stop-color="#FF00C5" stop-opacity="0"/>
</radialGradient>
<radialGradient id="paint48_radial_248_685" cx="0" cy="0" r="1" gradientUnits="userSpaceOnUse" gradientTransform="translate(74 553) rotate(73.5587) scale(468.142 468.142)">
<stop stop-color="#FF00C5" stop-opacity="0.12"/>
<stop offset="1" stop-color="#FF00C5" stop-opacity="0"/>
</radialGradient>
<radialGradient id="paint49_radial_248_685" cx="0" cy="0" r="1" gradientUnits="userSpaceOnUse" gradientTransform="translate(74 553) rotate(73.5587) scale(468.142 468.142)">
<stop stop-color="#FF00C5" stop-opacity="0.12"/>
<stop offset="1" stop-color="#FF00C5" stop-opacity="0"/>
</radialGradient>
<radialGradient id="paint50_radial_248_685" cx="0" cy="0" r="1" gradientUnits="userSpaceOnUse" gradientTransform="translate(74 553) rotate(73.5587) scale(468.142 468.142)">
<stop stop-color="#FF00C5" stop-opacity="0.12"/>
<stop offset="1" stop-color="#FF00C5" stop-opacity="0"/>
</radialGradient>
<radialGradient id="paint51_radial_248_685" cx="0" cy="0" r="1" gradientUnits="userSpaceOnUse" gradientTransform="translate(74 553) rotate(73.5587) scale(468.142 468.142)">
<stop stop-color="#FF00C5" stop-opacity="0.12"/>
<stop offset="1" stop-color="#FF00C5" stop-opacity="0"/>
</radialGradient>
<radialGradient id="paint52_radial_248_685" cx="0" cy="0" r="1" gradientUnits="userSpaceOnUse" gradientTransform="translate(74 553) rotate(73.5587) scale(468.142 468.142)">
<stop stop-color="#FF00C5" stop-opacity="0.12"/>
<stop offset="1" stop-color="#FF00C5" stop-opacity="0"/>
</radialGradient>
<radialGradient id="paint53_radial_248_685" cx="0" cy="0" r="1" gradientUnits="userSpaceOnUse" gradientTransform="translate(74 553) rotate(73.5587) scale(468.142 468.142)">
<stop stop-color="#FF00C5" stop-opacity="0.12"/>
<stop offset="1" stop-color="#FF00C5" stop-opacity="0"/>
</radialGradient>
<radialGradient id="paint54_radial_248_685" cx="0" cy="0" r="1" gradientUnits="userSpaceOnUse" gradientTransform="translate(74 553) rotate(73.5587) scale(468.142 468.142)">
<stop stop-color="#FF00C5" stop-opacity="0.12"/>
<stop offset="1" stop-color="#FF00C5" stop-opacity="0"/>
</radialGradient>
<radialGradient id="paint55_radial_248_685" cx="0" cy="0" r="1" gradientUnits="userSpaceOnUse" gradientTransform="translate(74 553) rotate(73.5587) scale(468.142 468.142)">
<stop stop-color="#FF00C5" stop-opacity="0.12"/>
<stop offset="1" stop-color="#FF00C5" stop-opacity="0"/>
</radialGradient>
<radialGradient id="paint56_radial_248_685" cx="0" cy="0" r="1" gradientUnits="userSpaceOnUse" gradientTransform="translate(74 553) rotate(73.5587) scale(468.142 468.142)">
<stop stop-color="#FF00C5" stop-opacity="0.12"/>
<stop offset="1" stop-color="#FF00C5" stop-opacity="0"/>
</radialGradient>
<radialGradient id="paint57_radial_248_685" cx="0" cy="0" r="1" gradientUnits="userSpaceOnUse" gradientTransform="translate(74 553) rotate(73.5587) scale(468.142 468.142)">
<stop stop-color="#FF00C5" stop-opacity="0.12"/>
<stop offset="1" stop-color="#FF00C5" stop-opacity="0"/>
</radialGradient>
<radialGradient id="paint58_radial_248_685" cx="0" cy="0" r="1" gradientUnits="userSpaceOnUse" gradientTransform="translate(74 553) rotate(73.5587) scale(468.142 468.142)">
<stop stop-color="#FF00C5" stop-opacity="0.12"/>
<stop offset="1" stop-color="#FF00C5" stop-opacity="0"/>
</radialGradient>
<radialGradient id="paint59_radial_248_685" cx="0" cy="0" r="1" gradientUnits="userSpaceOnUse" gradientTransform="translate(74 553) rotate(73.5587) scale(468.142 468.142)">
<stop stop-color="#FF00C5" stop-opacity="0.12"/>
<stop offset="1" stop-color="#FF00C5" stop-opacity="0"/>
</radialGradient>
<radialGradient id="paint60_radial_248_685" cx="0" cy="0" r="1" gradientUnits="userSpaceOnUse" gradientTransform="translate(74 553) rotate(73.5587) scale(468.142 468.142)">
<stop stop-color="#FF00C5" stop-opacity="0.12"/>
<stop offset="1" stop-color="#FF00C5" stop-opacity="0"/>
</radialGradient>
<radialGradient id="paint61_radial_248_685" cx="0" cy="0" r="1" gradientUnits="userSpaceOnUse" gradientTransform="translate(74 553) rotate(73.5587) scale(468.142 468.142)">
<stop stop-color="#FF00C5" stop-opacity="0.12"/>
<stop offset="1" stop-color="#FF00C5" stop-opacity="0"/>
</radialGradient>
<radialGradient id="paint62_radial_248_685" cx="0" cy="0" r="1" gradientUnits="userSpaceOnUse" gradientTransform="translate(74 553) rotate(73.5587) scale(468.142 468.142)">
<stop stop-color="#FF00C5" stop-opacity="0.12"/>
<stop offset="1" stop-color="#FF00C5" stop-opacity="0"/>
</radialGradient>
<radialGradient id="paint63_radial_248_685" cx="0" cy="0" r="1" gradientUnits="userSpaceOnUse" gradientTransform="translate(74 553) rotate(73.5587) scale(468.142 468.142)">
<stop stop-color="#FF00C5" stop-opacity="0.12"/>
<stop offset="1" stop-color="#FF00C5" stop-opacity="0"/>
</radialGradient>
<radialGradient id="paint64_radial_248_685" cx="0" cy="0" r="1" gradientUnits="userSpaceOnUse" gradientTransform="translate(74 553) rotate(73.5587) scale(468.142 468.142)">
<stop stop-color="#FF00C5" stop-opacity="0.12"/>
<stop offset="1" stop-color="#FF00C5" stop-opacity="0"/>
</radialGradient>
</defs>
</svg>
