<svg preserveAspectRatio="none" width="100%" height="100%" overflow="visible" style="display: block;" viewBox="0 0 219 400" fill="none" xmlns="http://www.w3.org/2000/svg">
<g id="Vector">
<path d="M195.196 95.2381H176.152V104.762L195.196 95.2381Z" fill="var(--fill-0, #3C006D)"/>
<path d="M219 95.2381H209.478V100L219 95.2381Z" fill="var(--fill-0, #3C006D)"/>
<path d="M219 119.048H209.478V123.81L219 119.048Z" fill="var(--fill-0, #3C006D)"/>
<path d="M219 142.857H209.478V147.619L219 142.857Z" fill="var(--fill-0, #3C006D)"/>
<path d="M219 166.667H209.478V171.429L219 166.667Z" fill="var(--fill-0, #3C006D)"/>
<path d="M166.63 95.2381H138.065V109.524L166.63 95.2381Z" fill="var(--fill-0, #3C006D)"/>
<path d="M133.304 95.2381H85.6957V119.048L133.304 95.2381Z" fill="var(--fill-0, #3C006D)"/>
<path d="M195.196 119.048H176.152V128.571L195.196 119.048Z" fill="var(--fill-0, #3C006D)"/>
<path d="M166.63 119.048L138.065 119.048V133.333L166.63 119.048Z" fill="var(--fill-0, #3C006D)"/>
<path d="M133.304 119.048H85.6957V142.857L133.304 119.048Z" fill="var(--fill-0, #3C006D)"/>
<path d="M195.196 142.857H176.152V152.381L195.196 142.857Z" fill="var(--fill-0, #3C006D)"/>
<path d="M166.63 142.857H138.065V157.143L166.63 142.857Z" fill="var(--fill-0, #3C006D)"/>
<path d="M133.304 142.857H85.6957V166.667L133.304 142.857Z" fill="var(--fill-0, #3C006D)"/>
<path d="M195.196 166.667H176.152V176.19L195.196 166.667Z" fill="var(--fill-0, #3C006D)"/>
<path d="M166.63 166.667L138.065 166.667V180.952L166.63 166.667Z" fill="var(--fill-0, #3C006D)"/>
<path d="M133.304 166.667H85.6957V190.476L133.304 166.667Z" fill="var(--fill-0, #3C006D)"/>
<path d="M195.196 8.53484e-06L176.152 7.70217e-06V9.52382L195.196 8.53484e-06Z" fill="var(--fill-0, #3C006D)"/>
<path d="M219 9.57567e-06L209.478 9.15934e-06V4.76191L219 9.57567e-06Z" fill="var(--fill-0, #3C006D)"/>
<path d="M219 23.8095L209.478 23.8095V28.5714L219 23.8095Z" fill="var(--fill-0, #3C006D)"/>
<path d="M219 47.6191H209.478V52.381L219 47.6191Z" fill="var(--fill-0, #3C006D)"/>
<path d="M219 71.4286H209.478V76.1905L219 71.4286Z" fill="var(--fill-0, #3C006D)"/>
<path d="M166.63 7.28584e-06L138.065 6.03684e-06V14.2857L166.63 7.28584e-06Z" fill="var(--fill-0, #3C006D)"/>
<path d="M133.304 5.82867e-06L85.6957 3.747e-06V23.8095L133.304 5.82867e-06Z" fill="var(--fill-0, #3C006D)"/>
<path d="M195.196 23.8095H176.152V33.3333L195.196 23.8095Z" fill="var(--fill-0, #3C006D)"/>
<path d="M166.63 23.8095H138.065V38.0952L166.63 23.8095Z" fill="var(--fill-0, #3C006D)"/>
<path d="M133.304 23.8095H85.6957V47.6191L133.304 23.8095Z" fill="var(--fill-0, #3C006D)"/>
<path d="M195.196 47.6191H176.152V57.1429L195.196 47.6191Z" fill="var(--fill-0, #3C006D)"/>
<path d="M166.63 47.6191H138.065V61.9048L166.63 47.6191Z" fill="var(--fill-0, #3C006D)"/>
<path d="M133.304 47.6191L85.6957 47.6191V71.4286L133.304 47.6191Z" fill="var(--fill-0, #3C006D)"/>
<path d="M195.196 71.4286H176.152V80.9524L195.196 71.4286Z" fill="var(--fill-0, #3C006D)"/>
<path d="M166.63 71.4286H138.065V85.7143L166.63 71.4286Z" fill="var(--fill-0, #3C006D)"/>
<path d="M133.304 71.4286H85.6957L85.6957 95.2381L133.304 71.4286Z" fill="var(--fill-0, #3C006D)"/>
<path d="M195.196 285.714H176.152V295.238L195.196 285.714Z" fill="var(--fill-0, #3C006D)"/>
<path d="M219 285.714H209.478V290.476L219 285.714Z" fill="var(--fill-0, #3C006D)"/>
<path d="M219 309.524H209.478V314.286L219 309.524Z" fill="var(--fill-0, #3C006D)"/>
<path d="M219 333.333H209.478V338.095L219 333.333Z" fill="var(--fill-0, #3C006D)"/>
<path d="M219 357.143H209.478V361.905L219 357.143Z" fill="var(--fill-0, #3C006D)"/>
<path d="M166.63 285.714H138.065V300L166.63 285.714Z" fill="var(--fill-0, #3C006D)"/>
<path d="M133.304 285.714H85.6957V309.524L133.304 285.714Z" fill="var(--fill-0, #3C006D)"/>
<path d="M195.196 309.524H176.152V319.048L195.196 309.524Z" fill="var(--fill-0, #3C006D)"/>
<path d="M166.63 309.524H138.065V323.81L166.63 309.524Z" fill="var(--fill-0, #3C006D)"/>
<path d="M133.304 309.524L85.6957 309.524V333.333L133.304 309.524Z" fill="var(--fill-0, #3C006D)"/>
<path d="M195.196 333.333H176.152V342.857L195.196 333.333Z" fill="var(--fill-0, #3C006D)"/>
<path d="M166.63 333.333H138.065V347.619L166.63 333.333Z" fill="var(--fill-0, #3C006D)"/>
<path d="M133.304 333.333L85.6957 333.333V357.143L133.304 333.333Z" fill="var(--fill-0, #3C006D)"/>
<path d="M195.196 357.143H176.152V366.667L195.196 357.143Z" fill="var(--fill-0, #3C006D)"/>
<path d="M166.63 357.143H138.065V371.429L166.63 357.143Z" fill="var(--fill-0, #3C006D)"/>
<path d="M133.304 357.143H85.6957V380.952L133.304 357.143Z" fill="var(--fill-0, #3C006D)"/>
<path d="M85.6957 357.143L38.087 357.143L85.6957 333.333H38.087L85.6957 309.524L38.087 309.524L85.6957 285.714H38.087L85.6957 261.905H38.087L85.6957 238.095L38.087 238.095L85.6957 214.286H38.087L85.6957 190.476L38.087 190.476L85.6957 166.667L38.087 166.667L85.6957 142.857H38.087L85.6957 119.048H38.087L85.6957 95.2381L38.087 95.2381L85.6957 71.4286H38.087L85.6957 47.6191L38.087 47.619L85.6957 23.8095L38.087 23.8095L85.6957 3.747e-06L1.74793e-05 0L0 400L85.6957 357.143Z" fill="var(--fill-0, #3C006D)"/>
<path d="M195.196 190.476H176.152V200L195.196 190.476Z" fill="var(--fill-0, #3C006D)"/>
<path d="M219 190.476H209.478V195.238L219 190.476Z" fill="var(--fill-0, #3C006D)"/>
<path d="M219 214.286H209.478V219.048L219 214.286Z" fill="var(--fill-0, #3C006D)"/>
<path d="M219 238.095H209.478V242.857L219 238.095Z" fill="var(--fill-0, #3C006D)"/>
<path d="M219 261.905H209.478V266.667L219 261.905Z" fill="var(--fill-0, #3C006D)"/>
<path d="M166.63 190.476L138.065 190.476V204.762L166.63 190.476Z" fill="var(--fill-0, #3C006D)"/>
<path d="M133.304 190.476L85.6957 190.476L85.6957 214.286L133.304 190.476Z" fill="var(--fill-0, #3C006D)"/>
<path d="M195.196 214.286H176.152V223.81L195.196 214.286Z" fill="var(--fill-0, #3C006D)"/>
<path d="M166.63 214.286L138.065 214.286V228.571L166.63 214.286Z" fill="var(--fill-0, #3C006D)"/>
<path d="M133.304 214.286H85.6957L85.6957 238.095L133.304 214.286Z" fill="var(--fill-0, #3C006D)"/>
<path d="M195.196 238.095H176.152V247.619L195.196 238.095Z" fill="var(--fill-0, #3C006D)"/>
<path d="M166.63 238.095H138.065V252.381L166.63 238.095Z" fill="var(--fill-0, #3C006D)"/>
<path d="M133.304 238.095H85.6957V261.905L133.304 238.095Z" fill="var(--fill-0, #3C006D)"/>
<path d="M195.196 261.905H176.152V271.429L195.196 261.905Z" fill="var(--fill-0, #3C006D)"/>
<path d="M166.63 261.905H138.065V276.19L166.63 261.905Z" fill="var(--fill-0, #3C006D)"/>
<path d="M133.304 261.905H85.6957V285.714L133.304 261.905Z" fill="var(--fill-0, #3C006D)"/>
</g>
</svg>
